<svg xmlns="http://www.w3.org/2000/svg" width="18" height="18" viewBox="0 0 18 18">
  <metadata><?xpacket begin="﻿" id="W5M0MpCehiHzreSzNTczkc9d"?>
<x:xmpmeta xmlns:x="adobe:ns:meta/" x:xmptk="Adobe XMP Core 5.6-c138 79.159824, 2016/09/14-01:09:01        ">
   <rdf:RDF xmlns:rdf="http://www.w3.org/1999/02/22-rdf-syntax-ns#">
      <rdf:Description rdf:about=""/>
   </rdf:RDF>
</x:xmpmeta>
                                                                                                    
                                                                                                    
                                                                                                    
                                                                                                    
                                                                                                    
                                                                                                    
                                                                                                    
                                                                                                    
                                                                                                    
                                                                                                    
                                                                                                    
                                                                                                    
                                                                                                    
                                                                                                    
                                                                                                    
                                                                                                    
                                                                                                    
                                                                                                    
                                                                                                    
                                                                                                    
                           
<?xpacket end="w"?></metadata>
<defs>
    <style>
      .cls-1 {
        fill: #242424;
        fill-rule: evenodd;
      }
    </style>
  </defs>
  <path id="Forma_1" data-name="Forma 1" class="cls-1" d="M1599.79,1606.25v-1.13a1.125,1.125,0,0,1,2.25,0v1.13A1.125,1.125,0,0,1,1599.79,1606.25Zm7.87,1.12a1.127,1.127,0,0,0,1.13-1.12v-1.13a1.125,1.125,0,0,0-2.25,0v1.13A1.118,1.118,0,0,0,1607.66,1607.37Zm4.5,12.38h-15.74v-13.5h2.81a1.685,1.685,0,1,0,3.37,0h3.38a1.685,1.685,0,1,0,3.37,0h2.81v13.5Zm-1.12-10.13h-13.5v9h13.5v-9Zm2.24-2.25v13.5h-15.74V1622h16.87v-14.63h-1.13Zm-11.24,3.38h-2.25V1613h2.25v-2.25Zm3.37,0h-2.25V1613h2.25v-2.25Zm3.38,0h-2.25V1613h2.25v-2.25Zm-6.75,3.37h-2.25v2.25h2.25v-2.25Zm3.37,0h-2.25v2.25h2.25v-2.25Zm3.38,0h-2.25v2.25h2.25v-2.25Z" transform="translate(-1596.41 -1604)"/>
</svg>
